<svg xmlns="http://www.w3.org/2000/svg" version="1.1" xmlns:xlink="http://www.w3.org/1999/xlink" width="512" height="512" x="0" y="0" viewBox="0 0 512 512" style="enable-background:new 0 0 512 512" xml:space="preserve" class=""><g transform="matrix(1.0499999999999996,0,0,1.0499999999999996,-12.799999999999898,-12.80002079010012)"><path fill-rule="evenodd" d="m409.306 30.26 58.075 68.4a4.215 4.215 0 0 1-3.215 6.949h-27.049v178.952l-30.832-30.832-31.221 13.871V105.61h-27.05a4.215 4.215 0 0 1-3.215-6.949l58.076-68.4a4.218 4.218 0 0 1 6.431 0zM158.074 449.508H143.83a112.5 112.5 0 0 1 12.731-38.339c4.337 2.577 8.773 5.067 13.145 7.591a8 8 0 1 0 8-13.856l-12.479-7.2a113.876 113.876 0 0 1 29.566-27.554l7.475 12.946a8 8 0 0 0 13.856-8l-7.293-12.632A112.588 112.588 0 0 1 248 352.48v14.768a8 8 0 1 0 16 0v-14.775a112.591 112.591 0 0 1 39.171 9.982l-7.3 12.637a8 8 0 0 0 13.857 8l7.476-12.949A113.906 113.906 0 0 1 346.77 397.7l-12.476 7.2a8 8 0 0 0 8 13.856c4.372-2.524 8.807-5.014 13.143-7.59a112.5 112.5 0 0 1 12.726 38.339h-14.237a8 8 0 1 0 0 16q71.037 0 142.074-.024V433l-39.762-15.3a204.8 204.8 0 0 0-24.869-59.993l17.3-38.961-45.93-45.936-38.974 17.31a204.832 204.832 0 0 0-59.976-24.865l-15.309-39.771h-64.959l-15.31 39.771a204.837 204.837 0 0 0-59.977 24.865l-38.974-17.31-45.934 45.935 17.308 38.97A204.83 204.83 0 0 0 55.768 417.7L16 433.005v32.48q71.037 0 142.074.023a8 8 0 0 0 0-16zM256 447.742a17.658 17.658 0 0 1 9.748 2.917l42.635-24.615a7.965 7.965 0 0 1 7.937 13.813l-42.608 24.6c.02.34.031.683.031 1.028A17.743 17.743 0 1 1 256 447.742zM109.124 132.5l58.076 68.4a4.215 4.215 0 0 1-3.215 6.949h-27.05V267.6l-31.22-13.866-30.833 30.827v-76.716H47.833a4.215 4.215 0 0 1-3.215-6.949l58.076-68.4a4.217 4.217 0 0 1 6.43 0zm150.091-51.122 58.076 68.4a4.215 4.215 0 0 1-3.216 6.948h-27.049v52.758h-62.053v-52.757h-27.049a4.214 4.214 0 0 1-3.215-6.948l58.076-68.4a4.217 4.217 0 0 1 6.43-.001z" fill="#ffffff" opacity="1" data-original="#000000" class=""></path></g></svg>