<svg xmlns="http://www.w3.org/2000/svg" version="1.1" xmlns:xlink="http://www.w3.org/1999/xlink" width="512" height="512" x="0" y="0" viewBox="0 0 512 512" style="enable-background:new 0 0 512 512" xml:space="preserve" class=""><g transform="matrix(1.0899999999999994,0,0,1.0899999999999994,-23.039863014221055,-23.042442054748335)"><g fill-rule="evenodd"><path d="m123.708 454.234 10.549 34.6 106.464-32.459-10.547-34.6Q176.941 438 123.708 454.234zM299.343 413.827l72.173 22 1.928-10.974a6.343 6.343 0 0 1 2.162-3.768l60.694-51.246a29.785 29.785 0 0 0 10.691-19.085c.076.012 22.106-108.014 24.472-119.16a11.006 11.006 0 0 0-1.529-8.308 10.842 10.842 0 0 0-15.011-3.32 12.081 12.081 0 0 0-5.1 7.2l-17.379 68.612c7.5 6.109 9.869 16.016 7.348 25.346a22.12 22.12 0 0 1-10.527 13.7l-57.844 33.234a6.36 6.36 0 1 1-6.337-11.029L422.93 323.8c11.55-6.635 1.982-26.643-11.015-19.175l-79.186 45.5a29.772 29.772 0 0 0-13.259 15.09zM271.232 456.372 377.7 488.831l10.548-34.6Q335.014 438 281.78 421.775zM266.221 67.528H245.73a4.283 4.283 0 0 0-4.253 4.254l-.025 10.918a6.365 6.365 0 0 1-4.991 6.213 89.783 89.783 0 0 0-28.377 11.653 6.39 6.39 0 0 1-8.411-.547l-7.72-7.72a4.287 4.287 0 0 0-6.019 0l-14.489 14.489a4.291 4.291 0 0 0 0 6.018l7.7 7.738a6.365 6.365 0 0 1 .866 7.917 89.775 89.775 0 0 0-11.835 28.315 6.389 6.389 0 0 1-6.334 5.553h-10.91a4.287 4.287 0 0 0-4.255 4.255v20.491a4.285 4.285 0 0 0 4.255 4.255l10.914.024a6.362 6.362 0 0 1 6.213 4.991 89.808 89.808 0 0 0 11.654 28.378 6.388 6.388 0 0 1-.548 8.41l-7.733 7.708a4.319 4.319 0 0 0 .013 6.03l14.489 14.489a4.286 4.286 0 0 0 6.018 0l7.738-7.7a6.365 6.365 0 0 1 7.918-.866 90.113 90.113 0 0 0 28.316 11.834 6.39 6.39 0 0 1 5.553 6.334v10.914a4.28 4.28 0 0 0 4.253 4.254h20.491a4.28 4.28 0 0 0 4.254-4.254l.026-10.914a6.364 6.364 0 0 1 4.99-6.213 89.742 89.742 0 0 0 28.378-11.655 6.39 6.39 0 0 1 8.411.549l7.72 7.714a4.284 4.284 0 0 0 6.017 0l14.49-14.488a4.289 4.289 0 0 0 0-6.017l-7.7-7.739a6.365 6.365 0 0 1-.865-7.917 89.831 89.831 0 0 0 11.834-28.316 6.388 6.388 0 0 1 6.333-5.553h10.915a4.287 4.287 0 0 0 4.255-4.255v-20.491a4.289 4.289 0 0 0-4.255-4.255l-10.915-.023a6.366 6.366 0 0 1-6.213-4.992 89.808 89.808 0 0 0-11.653-28.377 6.388 6.388 0 0 1 .547-8.411l7.72-7.72a4.291 4.291 0 0 0 0-6.018L326.018 92.3a4.284 4.284 0 0 0-6.017 0l-7.739 7.7a6.364 6.364 0 0 1-7.917.866 89.849 89.849 0 0 0-28.317-11.836 6.389 6.389 0 0 1-5.553-6.333V71.782a4.283 4.283 0 0 0-4.254-4.254zM255.975 112.2a64.633 64.633 0 1 1-45.7 18.931 64.421 64.421 0 0 1 45.7-18.931z" fill="#ffffff" opacity="1" data-original="#000000" class=""></path><path d="M290.815 215.232a19.348 19.348 0 0 0-3.915-2.886 19.067 19.067 0 0 0-9.316-2.4h-43.215a19.067 19.067 0 0 0-9.316 2.4 19.414 19.414 0 0 0-3.915 2.886 51.853 51.853 0 0 0 69.677 0zM212.816 205.574a32.529 32.529 0 0 1 6.049-4.358 31.762 31.762 0 0 1 15.5-4.049h43.215a31.756 31.756 0 0 1 15.5 4.049 32.4 32.4 0 0 1 6.049 4.358 51.852 51.852 0 1 0-86.32 0zm43.159-64.928a24.623 24.623 0 1 1-17.41 7.213 24.544 24.544 0 0 1 17.41-7.213z" fill="#ffffff" opacity="1" data-original="#000000" class=""></path><path d="M264.354 156.891a11.851 11.851 0 1 0 3.469 8.378 11.813 11.813 0 0 0-3.469-8.378z" fill="#ffffff" opacity="1" data-original="#000000" class=""></path><path d="M372.371 137.716a6.373 6.373 0 1 1 5.439-11.528l11.69 5.512a139.386 139.386 0 0 0-5.256-13.275A140.887 140.887 0 0 0 116 160.738a6.379 6.379 0 1 1-12.676-1.447 153.685 153.685 0 0 1 292.5-46.161q2.8 6.126 5.02 12.393l4.324-9.181a6.374 6.374 0 0 1 11.528 5.44l-11.463 24.336a6.389 6.389 0 0 1-8.5 3.073zM395.954 192.916a6.379 6.379 0 1 1 12.676 1.446 153.686 153.686 0 0 1-292.5 46.163q-2.8-6.128-5.02-12.4l-4.324 9.182a6.373 6.373 0 0 1-11.528-5.439l11.453-24.318a6.38 6.38 0 0 1 8.543-3.075l24.33 11.459a6.374 6.374 0 0 1-5.44 11.528l-11.693-5.508a139.165 139.165 0 0 0 5.257 13.277 140.886 140.886 0 0 0 268.248-42.32zM84.483 317.834a9.611 9.611 0 0 0 4.539 5.967l57.844 33.234a6.36 6.36 0 1 1-6.338 11.029L82.684 334.83a22.134 22.134 0 0 1-10.527-13.7c-2.521-9.33-.153-19.237 7.349-25.346l-17.38-68.614a12.081 12.081 0 0 0-5.1-7.2 10.644 10.644 0 0 0-8.07-1.488 11 11 0 0 0-6.941 4.808c-1.922 2.971-1.953 5.348-1.458 8.7l24.331 118.44c.837 4.109 1.487 7.1 3.6 10.871a30.96 30.96 0 0 0 7.166 8.538l60.7 51.248a6.339 6.339 0 0 1 2.16 3.769h.011l1.918 10.975 72.172-22-20.126-48.614a29.768 29.768 0 0 0-13.26-15.09l-79.184-45.5c-9.02-5.18-18.296 3.09-15.562 13.207z" fill="#ffffff" opacity="1" data-original="#000000" class=""></path></g></g></svg>