<svg xmlns="http://www.w3.org/2000/svg" version="1.1" xmlns:xlink="http://www.w3.org/1999/xlink" width="512" height="512" x="0" y="0" viewBox="0 0 512 512" style="enable-background:new 0 0 512 512" xml:space="preserve" class=""><g transform="matrix(1.05,0,0,1.05,-12.799992084502946,-12.800075340271064)"><path fill-rule="evenodd" d="m409.184 299.128 22.636 13.069-78.267 45.188-22.637-13.069zM108.547 127.891c-20.553 19.598-33.712 45.945-36.964 74.17a7.988 7.988 0 0 1-8.844 7.031 7.988 7.988 0 0 1-7.031-8.844c3.704-32.145 18.922-62.362 42.481-84.523l-16.119 1.172a7.989 7.989 0 0 1-1.125-15.937l42.602-3.098c5.81-.41 10.029 5.352 8.067 10.71l-11.852 36.483a7.985 7.985 0 0 1-15.187-4.937zm100.361 317.636c25.411 12.537 54.884 15.858 82.423 9.224a7.967 7.967 0 0 1 3.688 15.5c-31.532 7.595-64.936 3.732-93.947-10.811l6.642 14.728a7.986 7.986 0 0 1-14.562 6.562l-17.561-38.937c-2.428-5.389 1.674-11.399 7.458-11.267l38.162-1.413a7.974 7.974 0 0 1 .562 15.938zm225.879-195.035c-3.22 5.149-10.771 4.94-13.733-.313l-20.34-32.399a7.977 7.977 0 0 1 13.5-8.5l6.848 10.907c-1.849-28.319-13.647-55.367-33.207-75.946a7.98 7.98 0 0 1 11.562-11c22.326 23.492 35.718 54.476 37.627 86.811l9.439-13.124a7.97 7.97 0 0 1 11.125-1.812 7.97 7.97 0 0 1 1.812 11.125zM274.266 33.984a80.75 80.75 0 0 1 23.638 9.799l15.36-6.822 18.103 18.103-6.82 15.355a80.686 80.686 0 0 1 9.801 23.644l15.671 6.032v25.601l-15.674 6.033a80.749 80.749 0 0 1-9.799 23.637l6.822 15.36-18.103 18.103-15.355-6.82a80.691 80.691 0 0 1-23.643 9.801l-6.032 15.671h-25.601l-6.033-15.674a80.694 80.694 0 0 1-23.637-9.799l-15.36 6.822-18.103-18.103 6.82-15.355a80.718 80.718 0 0 1-9.801-23.643l-15.671-6.032v-25.601l15.673-6.033a80.72 80.72 0 0 1 9.8-23.639l-6.821-15.358 18.103-18.103 15.36 6.822a80.717 80.717 0 0 1 23.637-9.799l6.033-15.674h25.601zm-18.834 34.263c-24.66 0-44.648 19.988-44.648 44.648s19.988 44.648 44.648 44.648c24.661 0 44.648-19.987 44.648-44.648 0-24.66-19.987-44.648-44.648-44.648zM23.574 408.234l172.314-.001a6.977 6.977 0 0 0 6.867-8.363c-8.633-43.49-46.998-76.276-93.024-76.276S25.34 356.38 16.707 399.871a6.976 6.976 0 0 0 6.867 8.363zm86.157-190.548c26.484 0 47.954 21.47 47.954 47.954s-21.47 47.954-47.954 47.954-47.954-21.47-47.954-47.954 21.47-47.954 47.954-47.954zm338.051 103.727L369.516 366.6l9.05 5.225 78.267-45.188zm25.012 14.44-78.267 45.188 14.656 8.462 78.267-45.188zm22.638 22.286v90.375l-78.248 45.177v-90.375zm-94.248 135.552-78.248-45.177v-90.375l22.618 13.059.033 34.62a7.962 7.962 0 0 0 3.998 6.906l24.786 14.31c5.224 3.241 12.164-.475 12.164-6.776v-25.4l14.649 8.458zm-30.587-108.035-9.043-5.221v20.803l9.043 5.221z" clip-rule="evenodd" fill="#ffffff" opacity="1" data-original="#000000"></path></g></svg>