<svg xmlns="http://www.w3.org/2000/svg" version="1.1" xmlns:xlink="http://www.w3.org/1999/xlink" width="512" height="512" x="0" y="0" viewBox="0 0 32 32" style="enable-background:new 0 0 512 512" xml:space="preserve" class=""><g transform="matrix(1.0899999999999994,0,0,1.0899999999999994,-1.4399975860118772,-1.4400096344947677)"><path d="M7.109 12.523c.098-.218.232-.42.406-.594l1.414-1.414c.174-.174.376-.308.594-.406l-1.61-1.61 1.794-1.792a1 1 0 0 0 0-1.414l-2-2a1.03 1.03 0 0 0-1.414 0A14.561 14.561 0 0 0 2 13.657V16a1 1 0 0 0 1.982.19l.16-.82c.316-1.637.848-3.06 1.574-4.24zM25.707 3.293a1 1 0 0 0-1.414 0l-2 2a1 1 0 0 0 0 1.414L24.086 8.5l-1.609 1.609c.218.098.42.232.594.406l1.414 1.414c.174.174.308.376.406.594l1.393-1.393c.726 1.18 1.258 2.603 1.575 4.24l.16.82A1 1 0 0 0 30 16v-2.343c0-3.915-1.524-7.595-4.293-10.364zM25 17h-1.262a7.94 7.94 0 0 0-.852-2.058l.892-.892a1 1 0 0 0 0-1.414l-1.414-1.414a1 1 0 0 0-1.414 0l-.892.892A7.94 7.94 0 0 0 18 11.262V10a1 1 0 0 0-1-1h-2a1 1 0 0 0-1 1v1.262a7.94 7.94 0 0 0-2.058.852l-.892-.892a1 1 0 0 0-1.414 0l-1.414 1.414a1 1 0 0 0 0 1.414l.892.892A7.94 7.94 0 0 0 8.262 17H7a1 1 0 0 0-1 1v2a1 1 0 0 0 1 1h1.262c.189.732.477 1.422.852 2.058l-.892.892a1 1 0 0 0 0 1.414l1.414 1.414a1 1 0 0 0 1.414 0l.892-.892a7.94 7.94 0 0 0 2.058.852V28a1 1 0 0 0 1 1h2a1 1 0 0 0 1-1v-1.262a7.94 7.94 0 0 0 2.058-.852l.892.892a1 1 0 0 0 1.414 0l1.414-1.414a1 1 0 0 0 0-1.414l-.892-.892A7.938 7.938 0 0 0 23.738 21H25a1 1 0 0 0 1-1v-2a1 1 0 0 0-1-1zm-9 7a5 5 0 1 1 0-10 5 5 0 0 1 0 10z" fill="#ffffff" opacity="1" data-original="#000000"></path><path d="M16 23c-2.206 0-4-1.794-4-4s1.794-4 4-4 4 1.794 4 4-1.794 4-4 4z" fill="#ffffff" opacity="1" data-original="#000000"></path></g></svg>