<svg xmlns="http://www.w3.org/2000/svg" version="1.1" xmlns:xlink="http://www.w3.org/1999/xlink" width="512" height="512" x="0" y="0" viewBox="0 0 64 64" style="enable-background:new 0 0 512 512" xml:space="preserve" class=""><g transform="matrix(1.0999999999999996,0,0,1.0999999999999996,-3.200051689147948,-3.1999999999999886)"><path d="M5.99 15h4a1 1 0 0 0 0-2h-4a1 1 0 0 0 0 2zM5.99 27h4a1 1 0 1 0 0-2h-4a1 1 0 0 0 0 2zM5.99 39h4a1 1 0 1 0 0-2h-4a1 1 0 0 0 0 2zM10.99 50a1.003 1.003 0 0 0-1-1h-4a1 1 0 0 0 0 2h4a1.003 1.003 0 0 0 1-1z" fill="#ffffff" opacity="1" data-original="#000000" class=""></path><path d="M6.99 6v5h3a3 3 0 0 1 0 6h-3v6h3a3 3 0 1 1 0 6h-3v6h3a3 3 0 1 1 0 6h-3v6h3a3 3 0 0 1 0 6h-3v5a2.006 2.006 0 0 0 2 2h8V4h-8a2.006 2.006 0 0 0-2 2zM52.82 21.06l-.96.97 5.11 5.11.96-.97c3.286-3.48-1.646-8.327-5.11-5.11zM30.13 43.75a.944.944 0 0 0-.21.31l-2.85 6.54a1.01 1.01 0 0 0 1.32 1.32l6.54-2.85a.946.946 0 0 0 .31-.21l20.31-20.3-5.11-5.11z" fill="#ffffff" opacity="1" data-original="#000000" class=""></path><path d="m35.7 50.92-6.51 2.83a2.999 2.999 0 0 1-3.96-3.93l2.86-6.56c.033-.609 5.524-5.707 5.97-6.26H21.99a1 1 0 0 1 0-2h14.07l6-6H21.99a1 1 0 0 1 0-2c.06.01 22.007-.02 22.06.01.932-.934 4.034-4.037 4.94-4.93V6a2.006 2.006 0 0 0-2-2h-28v56h28a2.006 2.006 0 0 0 2-2V37.93L36.65 50.27a2.823 2.823 0 0 1-.95.65zM20.99 12a1.003 1.003 0 0 1 1-1h22a1.003 1.003 0 0 1 1 1v7a1.003 1.003 0 0 1-1 1h-22a1.003 1.003 0 0 1-1-1z" fill="#ffffff" opacity="1" data-original="#000000" class=""></path><path d="M22.989 13h20v5h-20z" fill="#ffffff" opacity="1" data-original="#000000" class=""></path></g></svg>