<svg xmlns="http://www.w3.org/2000/svg" version="1.1" xmlns:xlink="http://www.w3.org/1999/xlink" width="512" height="512" x="0" y="0" viewBox="0 0 32 32" style="enable-background:new 0 0 512 512" xml:space="preserve" class=""><g transform="matrix(1.04,0,0,1.04,-0.6400000000000006,-0.6400000000000006)"><circle cx="16" cy="7.12" r="3.01" fill="#ffffff" opacity="1" data-original="#000000" class=""></circle><path d="M28 10h-3.64c.01-.2.03-.4.03-.6C24.39 4.77 20.63 1 16 1S7.61 4.77 7.61 9.4c0 .2.02.4.03.6H4c-1.65 0-3 1.35-3 3v15c0 1.65 1.35 3 3 3h24c1.65 0 3-1.35 3-3V13c0-1.65-1.35-3-3-3zM16 3c3.52 0 6.39 2.87 6.39 6.4 0 1.3-.39 2.5-1.06 3.52-1.44-1.35-3.31-2.1-5.33-2.1s-3.89.75-5.33 2.1A6.37 6.37 0 0 1 9.61 9.4C9.61 5.87 12.48 3 16 3zm13 25c0 .55-.45 1-1 1H4c-.55 0-1-.45-1-1V13c0-.55.45-1 1-1h4.03c1.1 3.36 4.26 5.79 7.97 5.79s6.87-2.43 7.97-5.79H28c.55 0 1 .45 1 1z" fill="#ffffff" opacity="1" data-original="#000000" class=""></path><path d="M22.74 18.67H9.26c-1.51 0-2.74 1.23-2.74 2.74s1.23 2.74 2.74 2.74h13.48c1.51 0 2.74-1.23 2.74-2.74s-1.23-2.74-2.74-2.74zm0 3.48H9.26c-.41 0-.74-.33-.74-.74s.33-.74.74-.74h13.48c.41 0 .74.33.74.74s-.33.74-.74.74zM19.375 25.309h-6.75a1 1 0 1 0 0 2h6.75a1 1 0 1 0 0-2z" fill="#ffffff" opacity="1" data-original="#000000" class=""></path></g></svg>