<svg xmlns="http://www.w3.org/2000/svg" version="1.1" xmlns:xlink="http://www.w3.org/1999/xlink" width="512" height="512" x="0" y="0" viewBox="0 0 64 64" style="enable-background:new 0 0 512 512" xml:space="preserve" class=""><g transform="matrix(1.06,0,0,1.06,-1.9200000000000017,-1.9499999856948733)"><path d="M17.5 41.55a8.5 8.5 0 1 0 8.5-8.5 8.512 8.512 0 0 0-8.5 8.5zm9.5-6v1h1a1 1 0 0 1 0 2h-3a1.128 1.128 0 0 0-1 1 1.157 1.157 0 0 0 1 1h2a3 3 0 0 1 0 6v1a1 1 0 0 1-2 0v-1h-1a1 1 0 0 1 0-2h3a1.157 1.157 0 0 0 1-1 1.128 1.128 0 0 0-1-1h-2a3 3 0 0 1 0-6v-1a1 1 0 0 1 2 0zm24.95-17.71L50 17l7-6v9l-1.56-.67C50.57 28.82 40.65 34.07 30 32v-3c11 1 17.74-3.2 21.95-11.16zM29.3 16l2.48-9.4a36.035 36.035 0 0 0 5.26 1.06.892.892 0 0 1 .76.53 1.227 1.227 0 0 1-.19 1.21c-1.28 1.74-4.17 5.42-5.1 6.6zM61 59h-2V28h-4v31h-2V36h-4v23h-6V47h-4v12h-2V46a1.003 1.003 0 0 1 1-1h6a1.003 1.003 0 0 1 1 1v9.86a10.905 10.905 0 0 0 2-2.33V42.74c-.08-.16-3.94-5.65-6.17-9.1a24.417 24.417 0 0 1-6.23.81c-.3 0-.6-.01-.9-.02a10.488 10.488 0 1 1-7.7-3.38c.37 0 1.64-.09 2-.05v-4.19l2.18.2c1 .09 1.98.14 2.92.14a23.192 23.192 0 0 0 3.4-.23A151.5 151.5 0 0 0 34.49 24H18.47a119.223 119.223 0 0 0-12.2 18.2c-2.19 4.1-2.33 7.96-.41 11.15A13.857 13.857 0 0 0 13.655 59H3a1 1 0 0 0 0 2h58a1 1 0 0 0 0-2zm-26 0h-2v-3h-3v3h-2v-4a1.003 1.003 0 0 1 1-1h5a1.003 1.003 0 0 1 1 1zM14.38 9.41a1.24 1.24 0 0 1-.17-1.22.875.875 0 0 1 .75-.53 39.452 39.452 0 0 0 5.28-1L22.7 16h-3.22c-.92-1.18-3.81-4.85-5.1-6.59zm7.57-4.06a.977.977 0 0 1 .12-.92.997.997 0 0 1 .82-.43h6.23a.997.997 0 0 1 .82.43.974.974 0 0 1 .11.92c-.01.03-.02.06-.03.1L27.23 16h-2.46L21.98 5.45c-.01-.04-.02-.07-.03-.1zM34.5 18a2 2 0 0 1 0 4h-17a2 2 0 0 1 0-4z" data-name="16-Valentine copy 5" fill="#ffffff" opacity="1" data-original="#000000" class=""></path></g></svg>